<svg xmlns="http://www.w3.org/2000/svg" xmlns:xlink="http://www.w3.org/1999/xlink" version="1.1" x="0px" y="0px" viewBox="0 0 100 100" style="enable-background:new 0 0 100 100;" xml:space="preserve">
  <path
    d="M22.2,69.6c15.1-22.7,35.6-40,56.1-57.4c2.8-2.4,5.6-4.9,9.4-5.5C92,6,95.8,7,97.6,11.6c1.9,4.9-1.4,6.1-5.1,7.8  c-8.8,4.1-15.3,11.5-22.3,17.9C58.5,48,46.4,58.3,37.7,71.7c-3.4,5.3-6.9,10.5-8.2,16.8c-0.5,2.7-1.2,5.2-4.2,5.8  c-3.5,0.8-5.5-1.7-7.2-4.1c-4.5-6.8-8-14.1-11-21.6c-2-5.1-3.6-10.4-5.4-15.6c-0.7-1.9-0.8-3.8,1-4.9c2.3-1.5,4.4-0.3,5.7,1.6  c1.9,2.7,3.5,5.6,5,8.5C15.6,62.4,17,67.1,22.2,69.6z"
    fill="#FD4D21"
  />
</svg>
