<svg width="35" height="51" viewBox="0 0 35 51" fill="none" xmlns="http://www.w3.org/2000/svg">
<path d="M14.1697 9.16058C14.4428 7.55054 15.4259 6.10705 15.3713 4.38597C15.3713 4.1639 15.5897 3.94182 15.699 3.71975C15.8082 3.49768 16.0267 3.22008 16.0267 3.05353C15.9174 2.33178 16.1359 1.72108 16.7913 1.38797C17.6651 0.943817 18.3751 0.0555187 19.5767 0.222075C20.3413 0.333112 21.1059 0.111037 21.9798 0C22.4167 0.277593 22.9629 0.610705 23.509 0.999336C24.4921 1.7766 24.6013 2.55386 24.2736 3.94182C24.0552 4.71909 23.4544 5.60738 24.1644 6.44016C24.4921 6.77328 23.6729 7.10639 24.0552 7.55054C24.2736 7.82813 24.1098 8.21676 23.9459 8.54987C23.7275 9.10506 23.7275 9.77128 23.6729 10.4375C23.5636 11.881 22.5805 13.1024 22.8536 14.5459C22.4167 15.4342 22.5805 16.4335 22.5259 17.3773C22.5259 17.6549 22.3075 17.9325 22.0344 18.4322C22.4713 18.3212 22.6898 18.2656 22.8536 18.1546C23.1267 17.9325 23.3998 17.5994 23.6729 17.3773C23.8367 17.2663 24.0552 17.0442 24.219 17.0997C25.0383 17.2108 26.0213 17.0997 26.6221 17.5439C27.5506 18.1546 28.206 19.2095 28.5337 20.4309C28.916 19.9312 29.3529 19.5981 30.0083 19.7091C30.7729 19.8202 31.5375 19.7646 32.3021 19.7091C32.6298 19.7091 32.8483 19.8757 33.176 20.0422C34.7052 20.764 34.8691 22.0964 34.9783 23.5954C35.0875 25.2055 34.7598 26.7045 34.5414 28.259C34.3775 29.4249 34.3775 30.7018 33.7221 31.8677C33.3945 32.4229 33.6675 33.3112 33.3945 34.0329C33.0668 34.9212 32.5752 35.8095 32.6298 36.8644C32.6298 37.7527 32.0291 38.5855 31.9744 39.5848C31.9744 40.14 31.4283 40.6397 31.2098 41.2504C30.8821 42.0831 30.7729 43.138 29.899 43.6932C29.8444 44.526 29.189 45.0256 28.8614 45.7474C28.6429 46.3026 28.8067 47.0243 27.9875 47.3574C27.496 47.524 27.2775 48.2457 26.786 48.6343C26.349 48.9675 25.9121 48.8564 25.4752 49.134C25.1475 49.3561 24.929 49.6892 24.6559 49.9113C24.4375 50.0778 23.9459 49.9668 23.5636 49.9668C23.509 49.9668 23.4544 49.9668 23.3998 49.9668C22.6898 51.0216 21.6521 50.4665 20.7236 50.633C20.1228 50.7441 19.4128 50.3554 18.8667 50.9106C18.3751 50.4109 17.8836 50.7996 17.3374 50.9106C16.409 51.1327 15.4805 50.9106 14.552 50.5775C14.3882 50.522 14.2243 50.2999 14.0059 50.2999C12.8043 50.1889 11.6028 50.1333 10.4013 49.9668C8.87201 49.7447 7.34277 49.6337 5.97738 48.8564C5.43123 48.5233 4.66661 49.023 4.22968 48.1902C4.01122 47.746 2.9189 48.0792 2.9189 47.1353C2.26352 47.0243 2.09967 46.4691 1.77198 46.025C1.44428 45.4698 0.788894 45.1367 0.406584 44.5815C0.0242741 44.0263 0.0242736 43.3601 0.0242736 42.6938C-0.030342 40.3621 0.0242736 38.0303 0.0242736 35.754C0.0242736 35.5875 -0.030342 35.3654 0.0242736 35.2543C0.843509 34.366 0.515815 33.2557 0.679662 32.2008C0.898125 31.0349 1.66274 30.2022 2.70044 29.758C3.19198 29.5359 3.79276 29.4804 4.33891 29.4249C5.04892 29.3139 5.32199 28.9252 5.10353 28.2035C4.9943 27.9259 4.83045 27.5928 4.83045 27.3152C5.04892 25.4831 4.50276 23.6509 4.44814 21.8188C4.44814 21.0971 4.06583 20.4309 4.12045 19.6536C4.17507 18.9319 4.22968 18.2101 3.84737 17.4329C3.68352 17.0997 3.9566 16.6001 3.9566 16.1559C3.9566 15.5452 4.06583 14.8235 3.73814 14.3793C3.41045 13.8797 4.01122 13.5466 3.73814 13.3245C3.2466 12.8803 3.62891 12.6027 3.73814 12.2141C3.9566 11.4368 3.73814 10.6041 3.57429 9.88232C3.35583 9.04954 3.51968 8.27228 3.41045 7.49502C3.41045 7.38398 3.51968 7.16191 3.62891 7.10639C4.06583 6.82879 4.01122 6.38465 4.06583 5.9405C4.12045 5.55187 4.2843 4.99668 4.55737 4.83012C5.81353 4.10838 6.63277 2.72041 7.99816 2.10971C8.38047 1.94315 8.76278 1.72108 9.19971 1.83212C9.69125 1.94315 10.2374 2.55386 10.7289 1.83212C11.2205 2.33178 12.149 2.3873 12.2036 3.33112C12.2036 3.49768 12.3128 3.71975 12.422 3.88631C12.7497 4.38597 13.2413 4.88564 13.4597 5.44083C13.6782 5.99601 13.1867 6.77328 13.7874 7.27294C13.2959 7.99469 14.4428 8.49435 14.1697 9.16058ZM16.409 32.5339C16.0813 31.368 15.3713 30.9794 14.279 31.0349C12.859 31.0904 11.6028 31.5346 10.4013 32.3119C10.2374 32.4229 10.0736 32.7005 9.90971 32.7005C9.41817 32.645 9.14509 32.9781 8.8174 33.2557C8.4897 33.4778 8.05278 33.7553 7.72508 33.6998C7.01508 33.5333 7.45201 34.5326 6.85123 34.4216C5.48584 35.4209 4.83045 36.5868 4.12045 38.3079C3.79276 39.0296 4.39353 39.3627 4.2843 39.9179C4.06583 41.1948 4.66661 42.2497 5.26738 43.3046C5.43123 43.5821 5.59507 43.8042 5.86815 43.9708C6.96046 44.748 8.43509 44.637 9.41817 45.6363C9.47279 45.6919 9.63663 45.6363 9.74586 45.6363C11.6028 45.5253 13.4051 45.9139 15.2074 46.247C16.6274 46.5246 18.1567 46.5246 19.6313 46.6357C20.0682 46.6912 20.5052 46.6912 20.9421 46.6357C21.2698 46.5802 21.5975 46.4136 21.9252 46.3026C22.6898 46.1915 23.0721 45.1922 23.9459 45.3032C24.0006 45.3032 24.1098 45.1922 24.219 45.1367C24.5467 44.8036 24.8744 44.526 25.1475 44.1929C26.1306 42.9714 26.8406 41.5835 27.6598 40.3065C28.0421 39.6958 28.2606 38.9741 28.7521 38.4744C28.5337 37.4196 29.2437 36.4758 29.4621 35.3099C28.4244 35.5875 27.5506 35.8095 26.6221 36.0316C26.2944 35.6985 25.9121 35.4764 25.3113 35.3099C24.3283 35.0878 23.3998 34.5326 23.1813 33.3112C23.1267 33.0891 23.0721 32.867 22.9629 32.4229C22.4167 32.9781 22.0344 33.3667 21.6521 33.7553C20.9967 33.7553 20.2867 33.7553 19.5767 33.7553C19.9044 34.7547 19.249 35.4209 18.9213 36.1982C18.539 37.142 17.3921 36.9199 16.6821 37.4751C16.6821 37.6972 16.6821 37.9192 16.6821 38.1968C18.0474 38.3079 17.829 39.6403 18.2659 40.4176C17.7744 41.3059 18.3751 42.6383 17.0097 43.249C16.9005 43.249 16.6274 43.249 16.3544 43.249C15.5897 43.1935 15.3713 42.9714 15.3713 42.1387C15.3713 41.9166 15.3713 41.6945 15.3713 41.4724C15.5351 40.029 14.8797 38.9186 13.8967 37.9192C12.5859 37.9192 11.2751 37.8637 10.0189 37.9192C9.47279 37.9192 8.92663 38.1968 8.38047 38.1968C7.7797 38.2524 7.39739 37.6417 7.56124 37.0865C7.7797 36.3647 8.59894 35.4764 9.30894 35.5875C10.5651 35.754 11.5482 34.8102 12.7497 34.7547C13.2413 34.6992 13.6782 34.4216 14.1697 34.3105C15.3167 34.255 15.5897 33.0891 16.409 32.5339ZM16.2997 28.3145C16.409 27.9259 16.5182 27.4817 16.6274 27.0376C16.7367 26.5934 16.7913 26.1493 16.9551 25.7051C17.1736 25.0944 17.3374 24.3727 17.7198 23.873C18.1021 23.3178 18.6482 22.8737 18.7028 22.1519C19.5767 21.6523 19.1398 20.9305 18.8667 20.3753C18.1567 18.9319 18.7575 17.4884 18.539 16.0449C18.539 15.9894 18.5936 15.9339 18.6482 15.9339C19.3582 15.4897 19.1944 14.8235 19.1944 14.1573C19.1944 12.8803 19.5221 11.6589 19.9044 10.4375C20.2321 9.32713 20.5598 8.21676 20.5052 7.05087C20.5052 6.60672 20.3413 5.99601 20.5598 5.77394C21.1605 5.0522 20.669 4.33046 20.8875 3.60871C20.3959 3.60871 20.1228 3.60871 19.7951 3.60871C19.249 3.66423 18.7028 4.1639 18.5936 4.71909C18.3205 6.05153 17.9928 7.32846 17.6651 8.60539C17.2828 10.271 16.5728 11.881 16.6274 13.6576C16.0267 14.1573 16.2997 14.9345 16.0267 15.5452C15.7536 16.1559 15.9174 16.9332 15.9721 17.6549C16.0267 18.2101 15.8082 18.7653 15.4805 19.0984C14.8797 19.7646 14.9344 20.3753 15.1528 21.1526C15.262 21.5412 15.3713 22.0409 15.2074 22.374C14.989 22.7627 15.0436 23.0958 14.989 23.4844C14.9344 24.0396 15.0982 24.6503 14.6613 25.15C15.0982 25.7607 14.6613 26.0938 14.3882 26.5934C14.2243 26.871 14.3336 27.3152 14.3336 27.5928C15.0436 27.8148 15.5897 28.0369 16.2997 28.3145ZM11.1659 28.259C11.0566 27.8704 11.002 27.4817 10.8928 27.0376C10.8382 26.8155 10.7289 26.5934 10.7836 26.4269C11.2205 25.5941 11.1659 24.8724 10.7836 24.0396C10.6197 23.7065 10.6197 23.1513 10.8382 22.9292C11.2205 22.5406 10.7289 22.374 10.7836 22.1519C10.8928 21.7078 10.4559 21.4857 10.6197 21.0416C10.7289 20.764 10.4559 20.4309 10.4559 20.0978C10.4559 19.7091 10.3466 19.2095 10.7289 18.9319C10.1828 18.4322 10.9474 18.0436 10.7836 17.5439C10.6197 17.0442 10.8928 16.378 10.7289 15.9339C10.5651 15.4897 10.7289 15.1011 10.5105 14.6569C10.292 14.2683 10.4559 13.7131 10.4559 13.2134C10.4559 12.6583 10.4559 12.1031 10.4559 11.5479C10.4559 10.7706 10.4013 9.99336 10.4559 9.2161C10.5105 8.10572 10.4013 7.10639 9.63663 6.21809C9.5274 6.10705 9.41817 5.99601 9.25432 5.82946C8.87201 6.32913 8.65355 6.93983 8.21662 7.16191C7.56124 7.4395 7.45201 7.82813 7.50662 8.43884C7.50662 8.82747 7.50662 9.2161 7.50662 9.60473C7.50662 9.99336 7.50662 10.382 7.50662 10.7706C7.50662 11.1592 7.67047 11.4924 7.67047 11.881C7.67047 12.2696 7.39739 12.7138 7.56124 12.9358C7.7797 13.269 7.50662 13.6021 7.67047 13.7686C7.99816 14.2683 7.17893 14.6569 7.56124 14.99C7.99816 15.3787 7.7797 15.7673 7.83431 16.2114C7.88893 16.7666 7.99816 17.2663 7.99816 17.8215C7.99816 18.3212 7.94355 18.7653 7.83431 19.265C7.61585 20.5974 8.21663 21.8188 8.16201 23.0958C8.16201 23.5954 8.05278 24.0951 8.43509 24.6503C8.65355 24.9279 8.70817 25.7051 8.27124 26.2048C8.16201 26.3158 8.10739 26.7045 8.16201 26.8155C8.76278 27.4817 8.27124 28.37 8.59894 29.1473C9.41817 28.8142 10.1828 28.5366 11.1659 28.259ZM25.8029 23.5399C25.8029 22.7071 25.8029 21.8744 25.8029 21.0416C25.7483 20.1533 25.3113 19.9312 24.4375 20.3198C23.7821 20.5419 23.2359 20.9861 23.0175 21.5412C22.5805 22.5406 21.6521 23.2068 21.2698 24.2617C21.1059 24.8168 20.8328 25.3165 20.4505 25.7607C20.3413 25.8717 20.2867 26.1493 20.2321 26.3158C20.0682 27.4262 19.4128 28.4256 19.249 29.5359C19.7405 30.4797 20.7236 30.8129 21.379 30.3132C22.089 29.8135 22.7444 29.8135 23.3998 29.758C23.7821 27.4817 24.1098 25.3165 25.8029 23.5399ZM27.2775 31.7567C27.7144 31.5901 28.0421 31.4791 28.4244 31.4236C28.8614 31.368 29.2983 31.4236 29.7352 31.4236C30.4452 31.4236 30.7183 31.2015 30.6637 30.4797C30.6637 29.9246 30.9914 29.4804 30.9914 28.9807C30.9914 28.4811 31.2098 28.0369 31.2098 27.4817C31.1552 27.0376 31.5375 26.5379 31.5921 26.0383C31.7014 24.9834 32.0291 23.873 30.7183 23.0958C30.1175 23.7065 29.4075 24.2617 28.8067 24.9279C28.479 25.3165 28.3698 25.8162 28.0967 26.2603C27.6598 26.9266 27.6052 27.2597 27.3867 28.5366C27.2229 29.3694 26.8952 30.1466 26.5675 31.0349C26.7313 31.146 27.0044 31.4236 27.2775 31.7567Z" fill="black"/>
</svg>
