<svg width="40" height="40" viewBox="0 0 40 40" fill="none" xmlns="http://www.w3.org/2000/svg">
<path d="M2.94867 2.34218C6.1482 -0.669652 11.2731 -0.603328 15.0303 1.55294C18.1579 3.34793 19.9088 6.09387 21.1 9.06597C22.7374 6.43027 24.9674 4.16713 28.4013 3.13932C30.8053 2.41978 33.6524 2.48379 35.8652 3.65033C37.984 4.76736 39.3127 6.75326 39.7443 8.85953C40.5968 13.0201 39.1935 17.5304 37.3708 21.3589C35.4891 25.3115 32.7932 28.9295 29.4054 32.0168C25.609 35.4764 21.0134 38.1481 15.932 39.9132C15.4182 40.0917 14.8573 39.9796 14.3982 39.7173C14.2018 39.6164 14.0214 39.4753 13.8607 39.2937L13.8603 39.2933C13.8097 39.2361 13.7559 39.1849 13.71 39.119C11.0126 35.2497 8.61597 31.2236 6.47455 27.0956C4.32375 22.9496 2.18329 18.6544 0.787981 14.2575C-0.493402 10.2197 -0.496587 5.5853 2.94867 2.34218ZM4.95641 14.4289C6.31148 18.1518 8.02899 21.7966 9.87243 25.3513C11.7763 29.0226 13.8968 32.6062 16.237 36.0775C23.1096 33.3536 28.7936 28.4767 32.3414 22.6584C34.1745 19.6524 35.5501 16.2573 35.9687 12.8527C36.1627 11.2748 36.1994 9.45419 35.3142 8.01722C34.4613 6.63242 32.9157 6.02187 31.1565 6.13871C26.2446 6.46498 24.0493 11.1185 22.5941 14.6137C21.9696 16.1139 19.2871 16.3921 18.7996 14.6137C17.8882 11.2889 16.9631 7.51281 13.9315 5.13201C11.5592 3.26898 7.78893 2.59602 5.54796 4.96576C3.02026 7.63869 3.85893 11.4137 4.95641 14.4289Z" fill="black"/>
</svg>
