<svg width="50" height="48" viewBox="0 0 50 48" fill="none" xmlns="http://www.w3.org/2000/svg">
<path d="M49.0317 10.2762C49.3837 10.6463 49.8764 10.9635 49.9468 11.3335C50.0172 11.8622 50.0876 12.3909 49.6652 13.0252C48.8909 14.1354 48.2574 15.2456 46.3569 15.457C45.7233 16.1443 44.6675 16.3029 43.8932 16.7258C43.2597 17.0959 42.2742 16.9373 41.7815 17.5717C41.3591 18.1003 40.796 18.5761 39.8809 18.7347C39.5993 18.7876 39.3178 18.9461 38.9658 19.1047C39.1066 19.2105 39.2474 19.3162 39.3882 19.4748C37.8396 20.1092 36.9245 21.1136 35.939 22.1709C35.7982 22.3295 35.5871 22.3824 35.4463 22.541C35.0239 22.8582 34.6016 23.1754 34.2497 23.5983C33.8977 24.0741 33.9681 24.6027 34.2497 25.0785C34.7424 26.0301 34.9536 27.1403 35.7279 27.9861C35.7982 28.0918 35.939 28.1447 35.939 28.2504C35.7279 29.3606 36.5725 30.3122 36.7133 31.3695C36.8541 32.1625 37.6284 32.744 37.6988 33.4841C37.7692 33.8542 37.6284 34.33 37.9804 34.7C38.3323 35.0172 38.3323 35.5459 38.5435 35.9688C38.7547 36.4446 39.0362 36.8675 39.2474 37.3433C39.4586 37.7662 39.7401 38.1891 39.8809 38.612C40.1625 39.3522 40.3736 40.0923 40.5144 40.8324C40.6552 41.4668 40.3736 42.1012 41.2183 42.5769C41.3591 42.6827 41.3591 42.947 41.3591 43.1585C41.3591 43.74 41.4295 44.3215 41.3591 44.903C41.2887 45.4317 41.0072 46.0132 40.9368 46.5418C40.8664 47.1234 40.3033 47.4934 39.8105 47.5991C39.3882 47.7049 38.8954 48.3393 38.1915 47.7577C37.9804 47.5463 37.2061 47.7577 36.7837 47.5991C35.024 47.0705 33.9681 46.0132 33.1938 44.7444C33.053 44.5858 33.1234 44.3215 33.053 44.1629C32.8418 43.74 31.7156 43.8986 31.8564 43.1056C31.9268 42.7355 31.0821 42.3126 30.6597 41.8897C30.3078 41.4668 30.0262 40.991 29.6039 40.6209C29.1815 40.198 28.6184 39.8279 28.1257 39.4579C27.9849 39.3522 27.7033 39.2464 27.7033 39.0878C27.7033 38.0834 26.3659 37.8191 25.8731 37.1318C25.662 36.8146 25.0988 36.656 24.7469 36.3917C24.3246 36.0745 23.9726 35.6516 23.5503 35.3344C23.1279 35.0701 22.7056 34.8586 22.2128 34.6471C21.9313 34.5414 21.6497 34.3828 21.2977 34.33C20.4531 34.0656 20.0307 34.0656 19.6788 34.5943C19.3268 35.1758 18.7637 35.493 18.0598 35.863C17.4966 36.1802 17.3559 36.9732 16.3704 37.0789C16.1592 37.8719 14.9626 37.9777 14.3995 38.5063C13.9067 38.9821 13.414 39.5108 12.9212 39.9337C12.0766 40.6209 11.2319 41.2553 10.3872 41.8897C10.1056 42.1012 9.68327 42.3126 9.4721 42.5769C8.97936 43.3699 8.48663 44.0572 7.21959 44.2686C7.1492 44.2686 7.1492 44.3215 7.07881 44.3744C6.58608 44.6916 6.65647 45.3788 5.81178 45.4845C5.17826 45.5903 4.54474 45.8017 3.77044 46.0132C3.62966 45.9603 3.27771 45.8546 2.92576 45.7489C1.86989 45.3259 1.72911 44.7444 1.86989 43.74C2.08107 42.3655 3.06654 41.361 4.19279 40.4095C4.96709 39.7222 5.45982 38.9821 5.81178 38.1891C6.16373 37.3961 6.79725 36.6032 6.65647 35.7045C6.65647 35.6516 6.86764 35.5459 6.86764 35.4401C7.00842 34.7529 8.06428 34.4885 7.99389 33.6427C7.9235 33.114 8.62741 32.5325 8.76819 31.951C8.83858 31.4752 9.12014 31.2109 9.4721 30.8408C9.75366 30.5765 9.82405 30.2065 9.96483 29.8893C10.176 29.5192 10.5983 28.8848 10.4576 28.832C9.68327 28.409 10.7391 28.1447 10.5983 27.7747C10.4576 27.2989 10.3872 26.9817 9.68327 26.7173C7.1492 25.7658 4.68552 24.6027 1.86989 24.1269C0.462078 23.9155 -0.171439 22.3295 0.0397334 21.2194C0.321296 20.1092 1.44755 19.8449 2.43302 19.3162C2.50341 19.3162 2.5738 19.3162 2.64419 19.3162C3.41849 19.2105 3.98162 18.8404 4.61513 18.5761C5.24865 18.3118 6.09334 18.4175 6.72686 18.1532C7.71233 17.7831 8.62741 17.6774 9.68327 17.6774C10.3168 17.7302 10.8799 17.7302 11.443 17.2545C11.6542 17.043 12.3581 16.9901 12.7805 17.043C13.5548 17.0959 14.1179 16.8315 14.7514 16.6201C15.033 16.5672 15.3145 16.25 15.3145 16.0386C15.4553 15.1398 16.3 14.3997 16.3 13.3953C16.3 12.6023 17.3559 11.8622 17.4263 11.0692C17.4966 9.48326 18.7637 8.00303 18.4117 6.36421C18.2709 5.83556 18.6933 5.25404 18.7637 4.67252C18.8341 4.03813 18.6229 3.35089 18.8341 2.76937C19.0452 1.76493 19.3268 0.760486 20.7346 0.178968C21.2977 -0.0324935 21.6497 -0.0853588 22.2128 0.178968C23.1279 0.60189 24.043 0.919082 25.0285 1.342C25.2396 1.44773 25.5212 1.6592 25.5212 1.81779C25.8028 2.66364 26.4363 3.35089 26.9994 4.091C27.1402 4.2496 27.281 4.46106 27.281 4.67252C27.281 5.57123 27.6329 6.36421 28.0553 7.15719C28.196 7.36865 28.196 7.68584 28.1257 7.95017C27.9849 9.2718 28.6888 10.4348 29.5335 11.545C29.7446 11.8093 29.7446 12.2323 29.815 12.6023C29.9558 13.3424 30.3078 13.6068 31.2932 13.5539C31.434 13.5539 31.6452 13.6068 31.7156 13.5539C33.1938 12.5494 35.2351 12.6023 36.9949 12.1794C37.3468 12.0737 37.7692 11.9151 38.1211 11.9679C38.7547 12.0208 39.177 11.7565 39.6697 11.6507C40.5144 11.4393 41.4295 11.2278 42.3446 11.0164C43.1189 10.8049 43.8228 10.4348 44.5971 10.382C46.0049 10.2234 47.4127 10.2762 49.0317 10.2762ZM19.9603 27.8804C20.6642 27.1931 21.2274 26.6645 21.7905 26.1887C22.424 25.66 23.1279 25.2371 23.7614 24.7085C24.3245 24.2327 25.2396 24.0212 25.5212 23.3868C26.8586 23.0696 26.8586 22.2238 26.7882 21.4308C26.7178 20.6378 26.4363 19.8449 26.2955 19.0519C25.7324 19.0519 25.2396 18.9461 24.9581 19.0519C23.7614 19.7391 22.2832 19.6863 21.0162 20.0563C20.6642 20.1621 20.4531 20.0563 20.2419 20.0563C19.538 20.1092 18.8341 20.2678 18.2006 20.5321C17.919 20.6378 17.919 21.0608 17.7782 21.3251C17.2855 22.4353 17.1447 23.6512 16.0888 24.6027C16.7223 25.0785 16.8631 25.8186 17.9894 26.1358C18.7637 26.4002 19.2564 27.1931 19.9603 27.8804ZM31.9971 35.7573C31.9971 35.4401 32.1379 35.0701 31.9971 34.9643C31.434 34.5943 31.5748 34.1714 31.5748 33.8013C31.6452 33.0612 31.434 32.3739 30.8005 31.7924C30.5189 31.5281 30.5189 31.0523 30.2374 30.8408C29.7446 30.5237 30.167 30.2065 30.0262 29.8893C29.6742 29.3077 29.815 28.5676 29.0407 28.0918C28.9703 28.039 29.2519 27.6161 29.3927 27.246C27.9849 27.5632 27.1402 28.1447 26.4363 28.832C26.2251 29.0434 26.0139 29.3606 25.8028 29.5721C25.0285 30.2593 24.9581 30.6294 25.5916 31.3166C25.8028 31.581 26.1547 31.7924 26.4363 32.0039C27.3514 32.6383 28.196 33.3255 29.3223 33.8013C30.3078 34.2771 30.7301 35.2815 31.9971 35.7573ZM22.7056 8.37309C22.4944 8.63742 22.2832 8.90174 22.1424 9.16607C22.072 9.37753 22.2128 9.58899 22.072 9.80045C21.5089 10.8578 20.9458 11.9151 21.2274 13.0781C21.2274 13.131 21.0162 13.2367 20.9458 13.2896C20.2419 14.0825 20.3827 14.9284 20.3827 15.6685C21.4385 16.0386 22.1424 15.5628 22.8463 15.3513C23.6206 15.087 24.3949 14.7169 25.2396 14.3997C24.4653 13.9768 24.1134 13.5539 24.2542 12.8666C24.3949 11.8093 23.7614 10.8049 23.3391 9.80045C23.1279 9.32467 22.9871 8.90174 22.7056 8.37309ZM14.4698 29.6249C14.2587 29.8893 14.0475 30.1536 13.9771 30.4708C13.7659 30.8937 13.7659 31.3695 13.5548 31.7396C13.3436 32.2153 12.9916 32.6383 12.7101 33.0612C12.5693 33.2726 12.4285 33.537 12.2173 33.907C13.2028 33.3255 14.0475 33.0083 14.681 32.4797C15.3145 31.951 15.6665 31.2109 16.2296 30.4708C15.6665 30.1536 15.1034 29.8893 14.4698 29.6249ZM12.4285 23.2282C12.8509 22.541 13.414 22.0123 12.9212 21.2722C11.443 20.9022 10.5983 22.2238 9.26093 22.0652C10.2464 22.4353 11.3023 22.8053 12.4285 23.2282ZM33.2642 17.6774C32.6307 17.7302 32.0675 17.7302 31.1525 17.7831C31.786 18.2589 32.1379 18.4704 32.5603 18.7876C32.7714 18.4175 32.9826 18.1003 33.2642 17.6774Z" fill="black"/>
</svg>
