<svg width="53" height="50" viewBox="0 0 53 50" fill="none" xmlns="http://www.w3.org/2000/svg">
<path d="M16.9985 25.2271C17.1029 20.0205 19.5396 16.9054 24.6608 15.6718C30.1036 14.3608 35.2947 19.0857 35.3509 24.4265C35.4089 29.9009 30.6146 32.5876 25.8765 33.7736C20.0609 35.2297 18.0451 29.3011 16.9372 25.0562C16.3775 22.9108 13.0582 23.8215 13.6196 25.9709C14.3623 28.8165 14.957 31.4304 16.8511 33.7529C18.9696 36.3508 22.6777 37.7965 25.9723 37.2317C29.1299 36.6909 32.5719 35.2016 35.0189 33.094C37.6827 30.8007 38.6025 27.8605 38.7918 24.4259C39.1732 17.4978 32.5128 11.9121 25.9425 12.0572C18.3279 12.2258 13.701 18.0403 13.5577 25.2271C13.5135 27.4476 16.9544 27.443 16.9985 25.2271Z" fill="black"/>
<path d="M23.9415 2.17162C24.218 3.73091 24.0935 5.33607 24.3717 6.90281C24.5357 7.82725 25.6482 8.33535 26.4878 8.10424C27.4541 7.83872 27.8532 6.91026 27.6892 5.98811C27.4128 4.42883 27.5372 2.82367 27.2591 1.25693C27.0951 0.332482 25.9825 -0.175618 25.143 0.0554931C24.1772 0.321586 23.7775 1.24947 23.9415 2.17162Z" fill="black"/>
<path d="M40.2322 12.8056C41.4882 11.8496 42.6196 10.7841 43.7345 9.66929C45.3052 8.09911 42.872 5.66642 41.3018 7.2366C40.4043 8.13352 39.5079 9.06427 38.4958 9.83503C37.7508 10.4016 37.3608 11.3054 37.8781 12.1886C38.3088 12.9238 39.4844 13.3751 40.2322 12.8056Z" fill="black"/>
<path d="M43.8087 26.6608C46.1124 26.6195 48.3845 26.1493 50.6904 26.3741C52.8989 26.5891 52.8777 23.1466 50.6904 22.9332C48.3845 22.7084 46.1124 23.1787 43.8087 23.22C41.5928 23.2595 41.5888 26.701 43.8087 26.6608Z" fill="black"/>
<path d="M37.8782 38.7118C38.6363 40.2975 40.1194 41.5379 41.4452 42.6442C42.1644 43.2446 43.1708 43.3513 43.8779 42.6442C44.4961 42.026 44.5988 40.813 43.8779 40.2115C42.7361 39.2578 41.4544 38.2404 40.85 36.9753C40.4451 36.1295 39.254 35.9138 38.4964 36.3583C37.6373 36.8607 37.4739 37.866 37.8782 38.7118Z" fill="black"/>
<path d="M23.655 44.0354C23.9297 45.4634 24.0965 46.9086 24.3718 48.3365C24.5496 49.2581 25.638 49.7719 26.4879 49.538C27.4439 49.2753 27.8666 48.3417 27.6894 47.4218C27.4147 45.9939 27.2478 44.5487 26.9725 43.1208C26.7947 42.1992 25.7063 41.6853 24.8564 41.9193C23.9004 42.1825 23.4778 43.1156 23.655 44.0354Z" fill="black"/>
<path d="M10.7424 43.0129C11.4237 41.8631 12.7416 41.0734 13.8524 40.3325C14.6312 39.8129 14.9649 38.8242 14.47 37.9789C14.017 37.2064 12.897 36.8406 12.1165 37.3619C10.5016 38.4388 8.78344 39.5709 7.77125 41.2764C6.63634 43.1895 9.61154 44.9191 10.7424 43.0129Z" fill="black"/>
<path d="M1.65807 26.5174C3.4433 26.6247 5.19298 26.2536 6.96273 26.0873C7.89635 25.9996 8.68316 25.371 8.68316 24.3669C8.68316 23.4952 7.89807 22.5587 6.96273 22.6464C5.19298 22.8128 3.4433 23.1838 1.65807 23.0766C-0.558993 22.9435 -0.546377 26.3849 1.65807 26.5174Z" fill="black"/>
<path d="M7.67158 10.2249C9.48147 11.2561 10.9725 12.6823 12.9567 13.4089C13.8382 13.7318 14.84 13.0551 15.0729 12.2075C15.3372 11.2469 14.7506 10.4136 13.8714 10.0913C12.2244 9.48803 10.9203 8.11512 9.40749 7.25376C7.47659 6.15441 5.74412 9.12731 7.67158 10.2249Z" fill="black"/>
</svg>
