<svg width="63" height="46" viewBox="0 0 63 46" fill="none" xmlns="http://www.w3.org/2000/svg">
<mask id="path-1-outside-1_2009_112" maskUnits="userSpaceOnUse" x="-1.44246" y="-10.4141" width="65.1322" height="64.9665" fill="black">
<rect fill="white" x="-1.44246" y="-10.4141" width="65.1322" height="64.9665"/>
<path fill-rule="evenodd" clip-rule="evenodd" d="M28.4039 5.26341C30.8539 4.96469 32.8104 5.49682 33.7083 6.75745C34.286 7.56508 34.517 8.70529 34.1154 10.2415C34.0127 10.6279 33.8675 11.0467 33.6763 11.4978C34.4074 11.4155 35.0925 11.3878 35.7075 11.4206C37.8314 11.5335 39.1921 12.4202 39.4882 13.801C39.6074 14.3562 39.5643 15.0295 39.2684 15.8172C40.827 15.8278 42.0168 16.1272 42.8505 16.606C43.7508 17.124 44.2932 17.8529 44.5089 18.7127C44.6893 19.431 44.6354 20.2633 44.3028 21.1664C45.3793 21.0895 46.3342 21.152 47.0991 21.3571C47.9859 21.5965 48.6478 22.0292 49.0625 22.6187C49.705 23.5376 49.8257 24.9572 48.7675 26.9473C47.6503 29.0457 46.1072 30.4626 44.1964 31.7415C42.4294 32.9249 40.3317 33.9955 37.976 35.4745C37.4854 35.7843 36.8406 35.6413 36.5406 35.1528C36.2424 34.666 36.3963 34.0199 36.8907 33.71C39.2241 32.2428 41.3052 31.1855 43.0594 30.0115C44.6677 28.9349 45.9878 27.7611 46.9283 25.9916C47.2448 25.3974 47.4267 24.8965 47.4648 24.4691C47.4902 24.2136 47.4584 24.0019 47.3436 23.8381C47.1159 23.5124 46.6724 23.378 46.133 23.2899C45.3572 23.1663 44.4026 23.2073 43.3503 23.3667C43.2229 23.3861 43.0955 23.4055 42.9644 23.4286C42.3896 24.1504 41.6578 24.8958 40.7617 25.643C35.9141 29.6951 33.1678 31.6923 31.6203 32.5586C30.7735 33.0332 30.194 33.2083 29.8155 33.2405L29.2947 33.2148L29.0231 33.1302L28.7643 32.988L28.5072 32.7553L28.3313 32.4986L28.2089 32.2021L28.1343 31.8269C27.9765 30.3415 28.729 28.7718 30.176 27.3275C32.7825 24.7258 37.6867 22.4364 41.7901 21.5368C41.8748 21.4057 41.954 21.2765 42.0277 21.1493C42.4308 20.4332 42.6198 19.7918 42.4859 19.2517C42.3687 18.7869 41.984 18.4591 41.4038 18.2352C40.5962 17.922 39.4714 17.8226 38.0405 17.9515C37.7126 18.3945 37.3238 18.8665 36.8686 19.3658C36.5294 19.7389 29.7346 25.2886 26.5753 27.4682C25.8541 27.9659 25.2915 28.2939 24.9962 28.4074L24.7194 28.4873L24.4221 28.5104L24.1026 28.4674L23.7755 28.3618L23.4612 28.1765L23.1967 27.9107L22.9818 27.5312L22.8832 27.1473C22.8458 26.8673 22.8691 26.5177 22.9866 26.1199C23.3188 24.9952 24.5565 23.1841 26.4646 21.401C29.0198 19.0183 32.7662 16.6486 36.8719 15.9909C37.0615 15.6821 37.2069 15.3926 37.3098 15.1244C37.4789 14.6774 37.5448 14.3362 37.3745 14.0849C37.2634 13.9211 37.073 13.8162 36.8457 13.7307C36.4909 13.5943 36.0513 13.5225 35.5563 13.4963C34.6551 13.4493 33.5897 13.5518 32.4507 13.7777C31.6847 14.9949 30.6549 16.3785 29.3189 17.9387C26.8938 20.7655 23.3525 23.2583 21.4604 23.604C20.5448 23.7716 19.8703 23.5257 19.4595 23.058L19.2521 22.7596L19.113 22.4357C19.0518 22.2468 19.0126 22.0241 19.0066 21.7712C18.9946 21.2506 19.1409 20.5233 19.5326 19.571C20.3213 17.6607 22.2978 15.8668 24.7622 14.469C26.7324 13.3513 29.0059 12.4783 31.1379 11.9538C31.425 11.4452 31.6569 10.971 31.8297 10.535C32.2985 9.36302 32.3911 8.53171 32.0024 7.98598C31.6506 7.49488 30.9726 7.31931 30.1526 7.26685C29.4304 7.22152 28.6088 7.29657 27.7283 7.47266C25.9457 11.2775 21.0256 16.0294 17.8505 17.7735C16.9447 18.2715 16.1511 18.5325 15.5694 18.5544C15.2611 18.5666 14.9914 18.5244 14.7585 18.4371L14.3556 18.2205L14.0171 17.8898C13.6524 17.4082 13.4586 16.4666 13.9785 14.9611C14.6546 13.0107 16.2504 11.1476 18.2955 9.58691C20.6357 7.80184 23.5546 6.40874 26.2034 5.69555C26.4953 4.7306 26.4255 3.92122 25.5309 3.49728C24.8231 3.1598 23.9496 3.17686 23.0026 3.36546C21.895 3.58891 20.7011 4.05992 19.5184 4.64514C15.8007 6.48222 12.2104 9.43972 11.617 9.92873C11.1653 10.2987 10.5077 10.2391 10.1487 9.7961C9.78594 9.35326 9.8586 8.6941 10.3104 8.32414C11.0443 7.7209 16.0949 3.5867 20.6288 1.90218C22.8194 1.08822 24.9076 0.871285 26.4583 1.60791C27.2789 1.99652 27.808 2.55026 28.1158 3.19751C28.3994 3.79167 28.4948 4.48964 28.4039 5.25633L28.4039 5.26341ZM38.795 24.5957C36.6303 25.4017 34.4938 26.5045 32.8581 27.7461C31.9803 28.4116 31.2521 29.1126 30.7678 29.8342C30.521 30.2016 30.3388 30.5694 30.2545 30.9369C30.3486 30.8924 30.4483 30.8459 30.5442 30.7921C31.9518 30.021 34.4287 28.2219 38.7933 24.5974L38.795 24.5957ZM34.3672 18.8139C30.8997 20.1099 27.9588 22.5728 26.2837 24.6059C26.0147 24.9331 25.7698 25.306 25.5672 25.6539C27.9981 23.9574 32.4123 20.434 34.3672 18.8139ZM29.3146 14.6749C28.0892 15.1152 26.8751 15.6624 25.7627 16.2941C23.7685 17.4252 22.0961 18.8006 21.4581 20.3456C21.2706 20.8004 21.1717 21.2902 21.1279 21.5608C21.3494 21.519 21.6004 21.4323 21.8754 21.31C23.5822 20.5619 25.9812 18.6611 27.7412 16.6077C28.3272 15.9264 28.8487 15.2815 29.3111 14.6749L29.3146 14.6749ZM24.8897 8.31329C22.7361 9.12641 20.5407 10.3598 18.8133 11.8395C17.4784 12.9841 16.4207 14.2667 15.9486 15.6272C15.8567 15.8951 15.8 16.1974 15.7672 16.4124C15.9813 16.356 16.2784 16.2628 16.5238 16.1411C17.2323 15.7933 18.0623 15.2471 18.9383 14.5687C21.0424 12.9402 23.3963 10.5711 24.8898 8.31686L24.8897 8.31329ZM1.57519 20.3381C1.06321 20.0851 0.860795 19.4559 1.12578 18.9404C1.38892 18.423 2.02192 18.208 2.53205 18.463C17.5923 25.9171 23.1279 30.7714 32.3231 39.1782C32.743 39.5625 32.7682 40.225 32.3738 40.6547C31.9794 41.0844 31.3184 41.1209 30.8966 40.7347C21.8439 32.4597 16.3971 27.6775 1.57534 20.342L1.57519 20.3381ZM43.2941 40.204C42.8812 40.6156 42.2201 40.6225 41.8168 40.2175C41.4135 39.8125 41.4197 39.1511 41.8326 38.7395C44.6234 35.9491 45.9364 33.9239 59.9366 24.1474C60.4143 23.8138 61.0627 23.9272 61.3867 24.3986C61.7107 24.87 61.5863 25.5228 61.1105 25.8545C47.3367 35.4696 46.0423 37.461 43.2975 40.2042L43.2941 40.204ZM37.893 42.4543C38.2893 42.0301 38.9521 41.9992 39.3702 42.3891C39.7883 42.779 39.8042 43.4399 39.4061 43.866L38.7832 44.5333C38.3851 44.9594 37.724 44.9885 37.3059 44.5986C36.8879 44.2087 36.8719 43.5478 37.27 43.1217L37.893 42.4543Z"/>
</mask>
<path fill-rule="evenodd" clip-rule="evenodd" d="M28.4039 5.26341C30.8539 4.96469 32.8104 5.49682 33.7083 6.75745C34.286 7.56508 34.517 8.70529 34.1154 10.2415C34.0127 10.6279 33.8675 11.0467 33.6763 11.4978C34.4074 11.4155 35.0925 11.3878 35.7075 11.4206C37.8314 11.5335 39.1921 12.4202 39.4882 13.801C39.6074 14.3562 39.5643 15.0295 39.2684 15.8172C40.827 15.8278 42.0168 16.1272 42.8505 16.606C43.7508 17.124 44.2932 17.8529 44.5089 18.7127C44.6893 19.431 44.6354 20.2633 44.3028 21.1664C45.3793 21.0895 46.3342 21.152 47.0991 21.3571C47.9859 21.5965 48.6478 22.0292 49.0625 22.6187C49.705 23.5376 49.8257 24.9572 48.7675 26.9473C47.6503 29.0457 46.1072 30.4626 44.1964 31.7415C42.4294 32.9249 40.3317 33.9955 37.976 35.4745C37.4854 35.7843 36.8406 35.6413 36.5406 35.1528C36.2424 34.666 36.3963 34.0199 36.8907 33.71C39.2241 32.2428 41.3052 31.1855 43.0594 30.0115C44.6677 28.9349 45.9878 27.7611 46.9283 25.9916C47.2448 25.3974 47.4267 24.8965 47.4648 24.4691C47.4902 24.2136 47.4584 24.0019 47.3436 23.8381C47.1159 23.5124 46.6724 23.378 46.133 23.2899C45.3572 23.1663 44.4026 23.2073 43.3503 23.3667C43.2229 23.3861 43.0955 23.4055 42.9644 23.4286C42.3896 24.1504 41.6578 24.8958 40.7617 25.643C35.9141 29.6951 33.1678 31.6923 31.6203 32.5586C30.7735 33.0332 30.194 33.2083 29.8155 33.2405L29.2947 33.2148L29.0231 33.1302L28.7643 32.988L28.5072 32.7553L28.3313 32.4986L28.2089 32.2021L28.1343 31.8269C27.9765 30.3415 28.729 28.7718 30.176 27.3275C32.7825 24.7258 37.6867 22.4364 41.7901 21.5368C41.8748 21.4057 41.954 21.2765 42.0277 21.1493C42.4308 20.4332 42.6198 19.7918 42.4859 19.2517C42.3687 18.7869 41.984 18.4591 41.4038 18.2352C40.5962 17.922 39.4714 17.8226 38.0405 17.9515C37.7126 18.3945 37.3238 18.8665 36.8686 19.3658C36.5294 19.7389 29.7346 25.2886 26.5753 27.4682C25.8541 27.9659 25.2915 28.2939 24.9962 28.4074L24.7194 28.4873L24.4221 28.5104L24.1026 28.4674L23.7755 28.3618L23.4612 28.1765L23.1967 27.9107L22.9818 27.5312L22.8832 27.1473C22.8458 26.8673 22.8691 26.5177 22.9866 26.1199C23.3188 24.9952 24.5565 23.1841 26.4646 21.401C29.0198 19.0183 32.7662 16.6486 36.8719 15.9909C37.0615 15.6821 37.2069 15.3926 37.3098 15.1244C37.4789 14.6774 37.5448 14.3362 37.3745 14.0849C37.2634 13.9211 37.073 13.8162 36.8457 13.7307C36.4909 13.5943 36.0513 13.5225 35.5563 13.4963C34.6551 13.4493 33.5897 13.5518 32.4507 13.7777C31.6847 14.9949 30.6549 16.3785 29.3189 17.9387C26.8938 20.7655 23.3525 23.2583 21.4604 23.604C20.5448 23.7716 19.8703 23.5257 19.4595 23.058L19.2521 22.7596L19.113 22.4357C19.0518 22.2468 19.0126 22.0241 19.0066 21.7712C18.9946 21.2506 19.1409 20.5233 19.5326 19.571C20.3213 17.6607 22.2978 15.8668 24.7622 14.469C26.7324 13.3513 29.0059 12.4783 31.1379 11.9538C31.425 11.4452 31.6569 10.971 31.8297 10.535C32.2985 9.36302 32.3911 8.53171 32.0024 7.98598C31.6506 7.49488 30.9726 7.31931 30.1526 7.26685C29.4304 7.22152 28.6088 7.29657 27.7283 7.47266C25.9457 11.2775 21.0256 16.0294 17.8505 17.7735C16.9447 18.2715 16.1511 18.5325 15.5694 18.5544C15.2611 18.5666 14.9914 18.5244 14.7585 18.4371L14.3556 18.2205L14.0171 17.8898C13.6524 17.4082 13.4586 16.4666 13.9785 14.9611C14.6546 13.0107 16.2504 11.1476 18.2955 9.58691C20.6357 7.80184 23.5546 6.40874 26.2034 5.69555C26.4953 4.7306 26.4255 3.92122 25.5309 3.49728C24.8231 3.1598 23.9496 3.17686 23.0026 3.36546C21.895 3.58891 20.7011 4.05992 19.5184 4.64514C15.8007 6.48222 12.2104 9.43972 11.617 9.92873C11.1653 10.2987 10.5077 10.2391 10.1487 9.7961C9.78594 9.35326 9.8586 8.6941 10.3104 8.32414C11.0443 7.7209 16.0949 3.5867 20.6288 1.90218C22.8194 1.08822 24.9076 0.871285 26.4583 1.60791C27.2789 1.99652 27.808 2.55026 28.1158 3.19751C28.3994 3.79167 28.4948 4.48964 28.4039 5.25633L28.4039 5.26341ZM38.795 24.5957C36.6303 25.4017 34.4938 26.5045 32.8581 27.7461C31.9803 28.4116 31.2521 29.1126 30.7678 29.8342C30.521 30.2016 30.3388 30.5694 30.2545 30.9369C30.3486 30.8924 30.4483 30.8459 30.5442 30.7921C31.9518 30.021 34.4287 28.2219 38.7933 24.5974L38.795 24.5957ZM34.3672 18.8139C30.8997 20.1099 27.9588 22.5728 26.2837 24.6059C26.0147 24.9331 25.7698 25.306 25.5672 25.6539C27.9981 23.9574 32.4123 20.434 34.3672 18.8139ZM29.3146 14.6749C28.0892 15.1152 26.8751 15.6624 25.7627 16.2941C23.7685 17.4252 22.0961 18.8006 21.4581 20.3456C21.2706 20.8004 21.1717 21.2902 21.1279 21.5608C21.3494 21.519 21.6004 21.4323 21.8754 21.31C23.5822 20.5619 25.9812 18.6611 27.7412 16.6077C28.3272 15.9264 28.8487 15.2815 29.3111 14.6749L29.3146 14.6749ZM24.8897 8.31329C22.7361 9.12641 20.5407 10.3598 18.8133 11.8395C17.4784 12.9841 16.4207 14.2667 15.9486 15.6272C15.8567 15.8951 15.8 16.1974 15.7672 16.4124C15.9813 16.356 16.2784 16.2628 16.5238 16.1411C17.2323 15.7933 18.0623 15.2471 18.9383 14.5687C21.0424 12.9402 23.3963 10.5711 24.8898 8.31686L24.8897 8.31329ZM1.57519 20.3381C1.06321 20.0851 0.860795 19.4559 1.12578 18.9404C1.38892 18.423 2.02192 18.208 2.53205 18.463C17.5923 25.9171 23.1279 30.7714 32.3231 39.1782C32.743 39.5625 32.7682 40.225 32.3738 40.6547C31.9794 41.0844 31.3184 41.1209 30.8966 40.7347C21.8439 32.4597 16.3971 27.6775 1.57534 20.342L1.57519 20.3381ZM43.2941 40.204C42.8812 40.6156 42.2201 40.6225 41.8168 40.2175C41.4135 39.8125 41.4197 39.1511 41.8326 38.7395C44.6234 35.9491 45.9364 33.9239 59.9366 24.1474C60.4143 23.8138 61.0627 23.9272 61.3867 24.3986C61.7107 24.87 61.5863 25.5228 61.1105 25.8545C47.3367 35.4696 46.0423 37.461 43.2975 40.2042L43.2941 40.204ZM37.893 42.4543C38.2893 42.0301 38.9521 41.9992 39.3702 42.3891C39.7883 42.779 39.8042 43.4399 39.4061 43.866L38.7832 44.5333C38.3851 44.9594 37.724 44.9885 37.3059 44.5986C36.8879 44.2087 36.8719 43.5478 37.27 43.1217L37.893 42.4543Z" fill="black"/>
<path fill-rule="evenodd" clip-rule="evenodd" d="M28.4039 5.26341C30.8539 4.96469 32.8104 5.49682 33.7083 6.75745C34.286 7.56508 34.517 8.70529 34.1154 10.2415C34.0127 10.6279 33.8675 11.0467 33.6763 11.4978C34.4074 11.4155 35.0925 11.3878 35.7075 11.4206C37.8314 11.5335 39.1921 12.4202 39.4882 13.801C39.6074 14.3562 39.5643 15.0295 39.2684 15.8172C40.827 15.8278 42.0168 16.1272 42.8505 16.606C43.7508 17.124 44.2932 17.8529 44.5089 18.7127C44.6893 19.431 44.6354 20.2633 44.3028 21.1664C45.3793 21.0895 46.3342 21.152 47.0991 21.3571C47.9859 21.5965 48.6478 22.0292 49.0625 22.6187C49.705 23.5376 49.8257 24.9572 48.7675 26.9473C47.6503 29.0457 46.1072 30.4626 44.1964 31.7415C42.4294 32.9249 40.3317 33.9955 37.976 35.4745C37.4854 35.7843 36.8406 35.6413 36.5406 35.1528C36.2424 34.666 36.3963 34.0199 36.8907 33.71C39.2241 32.2428 41.3052 31.1855 43.0594 30.0115C44.6677 28.9349 45.9878 27.7611 46.9283 25.9916C47.2448 25.3974 47.4267 24.8965 47.4648 24.4691C47.4902 24.2136 47.4584 24.0019 47.3436 23.8381C47.1159 23.5124 46.6724 23.378 46.133 23.2899C45.3572 23.1663 44.4026 23.2073 43.3503 23.3667C43.2229 23.3861 43.0955 23.4055 42.9644 23.4286C42.3896 24.1504 41.6578 24.8958 40.7617 25.643C35.9141 29.6951 33.1678 31.6923 31.6203 32.5586C30.7735 33.0332 30.194 33.2083 29.8155 33.2405L29.2947 33.2148L29.0231 33.1302L28.7643 32.988L28.5072 32.7553L28.3313 32.4986L28.2089 32.2021L28.1343 31.8269C27.9765 30.3415 28.729 28.7718 30.176 27.3275C32.7825 24.7258 37.6867 22.4364 41.7901 21.5368C41.8748 21.4057 41.954 21.2765 42.0277 21.1493C42.4308 20.4332 42.6198 19.7918 42.4859 19.2517C42.3687 18.7869 41.984 18.4591 41.4038 18.2352C40.5962 17.922 39.4714 17.8226 38.0405 17.9515C37.7126 18.3945 37.3238 18.8665 36.8686 19.3658C36.5294 19.7389 29.7346 25.2886 26.5753 27.4682C25.8541 27.9659 25.2915 28.2939 24.9962 28.4074L24.7194 28.4873L24.4221 28.5104L24.1026 28.4674L23.7755 28.3618L23.4612 28.1765L23.1967 27.9107L22.9818 27.5312L22.8832 27.1473C22.8458 26.8673 22.8691 26.5177 22.9866 26.1199C23.3188 24.9952 24.5565 23.1841 26.4646 21.401C29.0198 19.0183 32.7662 16.6486 36.8719 15.9909C37.0615 15.6821 37.2069 15.3926 37.3098 15.1244C37.4789 14.6774 37.5448 14.3362 37.3745 14.0849C37.2634 13.9211 37.073 13.8162 36.8457 13.7307C36.4909 13.5943 36.0513 13.5225 35.5563 13.4963C34.6551 13.4493 33.5897 13.5518 32.4507 13.7777C31.6847 14.9949 30.6549 16.3785 29.3189 17.9387C26.8938 20.7655 23.3525 23.2583 21.4604 23.604C20.5448 23.7716 19.8703 23.5257 19.4595 23.058L19.2521 22.7596L19.113 22.4357C19.0518 22.2468 19.0126 22.0241 19.0066 21.7712C18.9946 21.2506 19.1409 20.5233 19.5326 19.571C20.3213 17.6607 22.2978 15.8668 24.7622 14.469C26.7324 13.3513 29.0059 12.4783 31.1379 11.9538C31.425 11.4452 31.6569 10.971 31.8297 10.535C32.2985 9.36302 32.3911 8.53171 32.0024 7.98598C31.6506 7.49488 30.9726 7.31931 30.1526 7.26685C29.4304 7.22152 28.6088 7.29657 27.7283 7.47266C25.9457 11.2775 21.0256 16.0294 17.8505 17.7735C16.9447 18.2715 16.1511 18.5325 15.5694 18.5544C15.2611 18.5666 14.9914 18.5244 14.7585 18.4371L14.3556 18.2205L14.0171 17.8898C13.6524 17.4082 13.4586 16.4666 13.9785 14.9611C14.6546 13.0107 16.2504 11.1476 18.2955 9.58691C20.6357 7.80184 23.5546 6.40874 26.2034 5.69555C26.4953 4.7306 26.4255 3.92122 25.5309 3.49728C24.8231 3.1598 23.9496 3.17686 23.0026 3.36546C21.895 3.58891 20.7011 4.05992 19.5184 4.64514C15.8007 6.48222 12.2104 9.43972 11.617 9.92873C11.1653 10.2987 10.5077 10.2391 10.1487 9.7961C9.78594 9.35326 9.8586 8.6941 10.3104 8.32414C11.0443 7.7209 16.0949 3.5867 20.6288 1.90218C22.8194 1.08822 24.9076 0.871285 26.4583 1.60791C27.2789 1.99652 27.808 2.55026 28.1158 3.19751C28.3994 3.79167 28.4948 4.48964 28.4039 5.25633L28.4039 5.26341ZM38.795 24.5957C36.6303 25.4017 34.4938 26.5045 32.8581 27.7461C31.9803 28.4116 31.2521 29.1126 30.7678 29.8342C30.521 30.2016 30.3388 30.5694 30.2545 30.9369C30.3486 30.8924 30.4483 30.8459 30.5442 30.7921C31.9518 30.021 34.4287 28.2219 38.7933 24.5974L38.795 24.5957ZM34.3672 18.8139C30.8997 20.1099 27.9588 22.5728 26.2837 24.6059C26.0147 24.9331 25.7698 25.306 25.5672 25.6539C27.9981 23.9574 32.4123 20.434 34.3672 18.8139ZM29.3146 14.6749C28.0892 15.1152 26.8751 15.6624 25.7627 16.2941C23.7685 17.4252 22.0961 18.8006 21.4581 20.3456C21.2706 20.8004 21.1717 21.2902 21.1279 21.5608C21.3494 21.519 21.6004 21.4323 21.8754 21.31C23.5822 20.5619 25.9812 18.6611 27.7412 16.6077C28.3272 15.9264 28.8487 15.2815 29.3111 14.6749L29.3146 14.6749ZM24.8897 8.31329C22.7361 9.12641 20.5407 10.3598 18.8133 11.8395C17.4784 12.9841 16.4207 14.2667 15.9486 15.6272C15.8567 15.8951 15.8 16.1974 15.7672 16.4124C15.9813 16.356 16.2784 16.2628 16.5238 16.1411C17.2323 15.7933 18.0623 15.2471 18.9383 14.5687C21.0424 12.9402 23.3963 10.5711 24.8898 8.31686L24.8897 8.31329ZM1.57519 20.3381C1.06321 20.0851 0.860795 19.4559 1.12578 18.9404C1.38892 18.423 2.02192 18.208 2.53205 18.463C17.5923 25.9171 23.1279 30.7714 32.3231 39.1782C32.743 39.5625 32.7682 40.225 32.3738 40.6547C31.9794 41.0844 31.3184 41.1209 30.8966 40.7347C21.8439 32.4597 16.3971 27.6775 1.57534 20.342L1.57519 20.3381ZM43.2941 40.204C42.8812 40.6156 42.2201 40.6225 41.8168 40.2175C41.4135 39.8125 41.4197 39.1511 41.8326 38.7395C44.6234 35.9491 45.9364 33.9239 59.9366 24.1474C60.4143 23.8138 61.0627 23.9272 61.3867 24.3986C61.7107 24.87 61.5863 25.5228 61.1105 25.8545C47.3367 35.4696 46.0423 37.461 43.2975 40.2042L43.2941 40.204ZM37.893 42.4543C38.2893 42.0301 38.9521 41.9992 39.3702 42.3891C39.7883 42.779 39.8042 43.4399 39.4061 43.866L38.7832 44.5333C38.3851 44.9594 37.724 44.9885 37.3059 44.5986C36.8879 44.2087 36.8719 43.5478 37.27 43.1217L37.893 42.4543Z" stroke="black" mask="url(#path-1-outside-1_2009_112)"/>
</svg>
