<svg xmlns="http://www.w3.org/2000/svg" viewBox="0 0 48 60" x="0px" y="0px"><title>Ui vol.1</title><g data-name="Layer 18">
<path class="path" fill="#ffffff" stroke="#000000" stroke-width="4" d="M37.60254,9.3877a1.00011,1.00011,0,0,0-1.6084.792c0,.08789-.07617,8.73633-5.2666,8.73633-2.47168,0-5.05957-2.97461-5.8916-6.77149-.33985-1.55078-1.0752-6.78418,3.73535-9a.99965.99965,0,0,0-.63574-1.88379c-.41407.0918-10.146,2.34766-11.83448,9.70313-.41943,1.82617-.66064,3.39746-.85449,4.66015-.56494,3.67578-.76123,4.46-2.95117,4.6377-3.06494.2666-3.73-5.64356-3.73584-5.70313a1.00014,1.00014,0,0,0-1.94531-.21386c-.2168.66211-5.22559,16.31054,1.585,25.70605a14.839,14.839,0,0,0,5.827,4.7428.95146.95146,0,0,0,.12067.06048,23.46414,23.46414,0,0,0,9.86682,1.90961c11.8252,0,16.3916-6.13965,18.14063-11.291C45.48438,25.66406,41.19727,12.14551,37.60254,9.3877ZM15.31342,43.18976c-.62769-1.14209-2.88849-5.64282-2.17426-10.02081A22.57682,22.57682,0,0,1,14.606,27.791c1.499,2.41992,4.81347,6.53515,9.60058,5.52343a13.36773,13.36773,0,0,0,7.6294-4.4375c1.11719,2.32129,2.97461,7.09571,1.56347,10.89453-.81286,2.19019-2.65954,3.77631-5.48181,4.71955a27.42272,27.42272,0,0,1-3.90393.27264A21.889,21.889,0,0,1,15.31342,43.18976Zm24.94732-8.35968a13.42159,13.42159,0,0,1-5.98388,7.563,8.81279,8.81279,0,0,0,.99755-1.92536c2.26172-6.09082-2.2666-13.69922-2.46093-14.0205a1.00041,1.00041,0,0,0-1.74512.06054,10.77907,10.77907,0,0,1-7.2749,4.84961c-4.97412,1.05371-8.23242-5.96582-8.26514-6.03711a.99951.99951,0,0,0-1.66162-.24511c-.18018.20507-1.78662,2.167-2.70117,7.77148A16.98236,16.98236,0,0,0,12.3103,41.449a12.5464,12.5464,0,0,1-2.489-2.56713c-4.31445-5.94825-3.291-15.09375-2.24561-20.17871.89551,2.03515,2.42578,3.73632,4.88135,3.55273,3.8418-.3125,4.20947-2.70508,4.76611-6.32813.19874-1.29394.42432-2.76074.82715-4.5166.70362-3.06543,3.26807-5.11133,5.665-6.39355a11.10222,11.10222,0,0,0-.833,7.55566c.9087,4.14551,3.895,8.34278,7.84522,8.34278,5.00488,0,6.56348-4.998,7.04785-8.17774C40.26758,17.01074,42.88477,27.10156,40.26074,34.83008Z"/></g></svg>
