<svg width="37" height="46" viewBox="0 0 37 46" fill="none" xmlns="http://www.w3.org/2000/svg">
<path d="M35.6309 6.55854C34.5986 5.03018 33.2153 4.40345 31.7084 4.33421C31.3604 4.18342 30.9507 4.13778 30.5142 4.24497C30.1343 4.33831 29.767 4.45833 29.4092 4.59988C27.0806 5.19481 24.7227 6.64881 23.0627 7.87253C21.3111 9.16343 19.7737 10.6959 18.4952 12.4002C17.7569 10.1753 16.6361 8.06588 15.1543 6.18158C12.7644 3.14332 8.53909 -0.8253 4.08632 0.150698C1.72003 0.669214 0.684123 2.55915 0.379692 4.68758C0.00452302 7.31503 -0.0871733 9.96915 0.0804999 12.6156C0.417418 17.9325 1.7106 23.1582 3.48479 28.1992C5.52254 33.9901 8.17178 39.5712 10.8414 45.119C11.6463 46.7919 13.9644 45.8339 14.11 44.3091C14.5381 44.403 14.9877 44.3594 15.3361 44.1045C23.5191 38.1146 30.0437 30.301 34.105 21.2714C36.0511 16.9458 38.628 10.9949 35.6309 6.55854ZM23.0376 15.8708C24.2747 14.1875 25.5799 12.5504 26.9616 10.9713C27.2299 10.6651 27.5008 10.3533 27.7801 10.0476C25.4075 15.8523 21.4903 21.0385 18.5214 26.6252C18.5083 26.017 18.4952 25.4082 18.4821 24.7999C18.4716 24.3142 18.2856 23.9368 18.0037 23.6665C19.5232 20.98 21.1974 18.3741 23.0376 15.8708ZM8.02401 8.36027C8.04393 8.38335 8.06017 8.40284 8.06803 8.41361C8.36565 8.81006 8.65436 9.21266 8.93469 9.6204C9.10131 9.86299 9.26427 10.1081 9.42409 10.3543C9.20087 10.619 9.07092 10.9677 9.09555 11.3949C9.19668 13.1408 9.28628 14.8856 9.37483 16.6298C9.33553 16.4478 9.29571 16.2657 9.25589 16.0836C8.7644 13.8172 8.23361 11.5452 8.02401 9.23626C8.00201 8.98546 8.01773 8.67363 8.02401 8.36027ZM18.7409 36.796C18.7483 36.7986 18.7561 36.8007 18.7635 36.8032C18.7561 36.8099 18.7488 36.8166 18.7415 36.8237C18.7415 36.8145 18.7409 36.8053 18.7409 36.796ZM20.9527 30.6534C22.6797 27.8443 24.5901 25.1507 26.674 22.5817C24.9485 25.3718 22.9841 28.0418 20.9527 30.6534ZM33.3788 11.6524C32.8239 11.5309 32.2109 11.6396 31.7388 12.0755C31.133 12.6351 30.5394 13.2054 29.9525 13.7813C30.88 11.9253 31.6843 10.0174 32.2764 8.01921C32.5441 8.24231 32.7537 8.56952 32.9313 8.97572C33.3023 9.82298 33.416 10.7328 33.3788 11.6524ZM14.9039 12.9084C14.0492 11.1021 13.0432 9.36088 11.8925 7.70892C13.2109 9.266 14.2216 11.0323 14.9039 12.9084ZM3.90135 5.18045C4.00772 4.49371 4.0706 3.69055 4.86809 3.46848C5.49949 3.29308 6.30589 3.51412 6.91947 3.74902C6.36929 3.79467 5.81178 4.04597 5.27103 4.59424C3.63622 6.25031 4.40385 9.34396 4.6957 11.3211C5.53302 16.9935 7.01955 22.6166 8.23675 28.2249C8.57734 29.7948 8.83671 31.377 9.13275 32.9449C7.12434 28.1828 5.4167 23.3157 4.4159 18.2669C3.5702 14.0014 3.23485 9.49218 3.90135 5.18045Z" fill="black"/>
</svg>
