<svg width="42" height="42" viewBox="0 0 42 42" fill="none" xmlns="http://www.w3.org/2000/svg">
<path d="M17.3636 15.9378C19.0796 11.3944 19.8734 6.51974 22.1139 2.19601C22.9706 0.542125 20.5576 -0.929079 19.7005 0.72481C17.3398 5.28029 16.4752 10.3795 14.6688 15.1633C14.0074 16.9144 16.7109 17.666 17.3636 15.9378Z" fill="black"/>
<path d="M19.2101 2.21206C20.4291 6.74422 22.6022 10.8129 23.3246 15.5015C23.5384 14.9529 23.7527 14.4039 23.967 13.8554C23.9153 13.8797 23.8631 13.9035 23.8119 13.9273C22.1675 14.6896 23.5906 17.2006 25.2224 16.4445C25.2741 16.4207 25.3258 16.3964 25.3775 16.3726C25.984 16.0913 26.1116 15.3227 26.0194 14.7265C25.2974 10.0408 23.1234 5.96781 21.9048 1.4371C21.419 -0.369837 18.7224 0.398804 19.2101 2.21206Z" fill="black"/>
<path d="M1.34295 17.494C6.39471 17.9196 11.4302 17.1748 16.4819 17.1296C18.2832 17.1136 18.2851 14.1984 16.4819 14.2144C11.4302 14.2596 6.39471 15.0044 1.34295 14.5788C-0.45463 14.4272 -0.440656 17.3434 1.34295 17.494Z" fill="black"/>
<path d="M24.7283 16.8347C29.6133 18.1348 34.6855 16.3712 39.5179 17.8064C41.2549 18.3224 41.9914 15.5092 40.2609 14.9952C35.388 13.5483 30.34 15.3193 25.4713 14.0234C23.7235 13.5585 22.9829 16.3702 24.7283 16.8347Z" fill="black"/>
<path d="M28.4984 26.7949C31.2248 25.6381 33.6895 24.0338 36.169 22.3964C38.1683 21.0768 40.5374 20.0778 41.7942 17.8652C42.7151 16.2439 40.2984 14.778 39.3808 16.394C38.4333 18.0625 36.2994 18.9205 34.758 19.8796C32.4509 21.3153 30.2587 22.9221 27.7554 23.9837C26.1093 24.6824 26.8285 27.5033 28.4984 26.7949Z" fill="black"/>
<path d="M1.10366 17.4163C4.78081 20.1551 7.84354 23.6368 11.1853 26.7843C12.5189 28.0407 14.5019 25.9855 13.1613 24.7232C9.63693 21.4033 6.39346 17.7889 2.51415 14.8995C1.04404 13.8043 -0.349215 16.3343 1.10366 17.4163Z" fill="black"/>
<path d="M10.0272 40.717C11.1097 36.1153 11.3487 31.1061 13.4966 26.8538C14.336 25.1921 11.9235 23.7185 11.0832 25.3825C8.80254 29.8987 8.48113 35.0596 7.33243 39.9425C6.90248 41.7679 9.59769 42.5424 10.0272 40.717Z" fill="black"/>
<path d="M9.86601 41.6139C14.6755 39.7229 17.2422 34.8385 21.496 32.1137C23.0285 31.1323 21.626 28.6102 20.0855 29.5965C16.1172 32.138 13.5404 37.0662 9.1235 38.8022C7.45355 39.4591 8.1765 42.2781 9.86601 41.6139Z" fill="black"/>
<path d="M20.3249 32.5558C22.5473 32.6433 24.3686 34.6072 25.8583 36.1372C27.7788 38.1108 30.0408 39.7054 32.0303 41.6032C33.357 42.8688 35.339 40.8131 34.0063 39.5421C31.722 37.3625 29.2345 35.4472 26.9874 33.2225C25.1391 31.3927 22.9474 29.7441 20.3249 29.6406C18.5217 29.5697 18.5287 32.4849 20.3249 32.5558Z" fill="black"/>
<path d="M26.8047 26.4893C29.2139 30.9802 31.1484 35.6586 32.1373 40.717C32.497 42.5584 35.1908 41.7771 34.8321 39.942C33.798 34.6499 31.7372 29.714 29.2181 25.0176C28.3377 23.3778 25.9234 24.8471 26.8047 26.4893Z" fill="black"/>
</svg>
